<?xml version="1.0" encoding="UTF-8"?>
<svg version="1.1" xmlns="http://www.w3.org/2000/svg" width="64" height="64">
<path d="M0 0 C4.59680857 -0.84431178 7.5055595 -0.01714098 11.375 2.375 C17.42886662 6.7391744 22.87406301 12.34318495 26.6328125 18.80859375 C27.30957031 19.89333984 27.30957031 19.89333984 28 21 C28.66 21 29.32 21 30 21 C31.24499587 19.37583273 32.42042469 17.69811602 33.5625 16 C38.10972924 9.58086947 43.53408535 3.06370203 51 0 C54.625 -0.3125 54.625 -0.3125 58 0 C62.16169484 6.24254226 60.04649607 15.28585956 58.7578125 22.35546875 C57.69848375 26.05219846 56.13108566 27.81552163 53 30 C50.1875 31.3125 50.1875 31.3125 48 32 C48.804375 32.45375 49.60875 32.9075 50.4375 33.375 C53 35 53 35 54 37 C54.42438457 40.73458419 54.15986596 42.68666271 52.4375 46.0625 C48.61597213 50.66793103 45.33998708 53.55620935 39.375 54.6875 C35.64236374 53.92714817 34.22597511 52.80973535 32 49.734375 C30.57496396 47.26282812 29.72051081 44.75104126 29 42 C28.69707031 42.68707031 28.39414062 43.37414063 28.08203125 44.08203125 C24.7159198 51.32176019 24.7159198 51.32176019 21.625 54.25 C18.7626886 55.06780326 16.73946666 55.12223436 13.91015625 54.12109375 C9.25023425 51.3861293 5.27712964 46.95695781 3.1328125 41.9921875 C2.75 40.1875 2.75 40.1875 3 37 C4.84136174 34.58718117 6.30301826 33.34849087 9 32 C7.906875 31.46375 6.81375 30.9275 5.6875 30.375 C1.90478085 28.18942894 0.45588627 26.20589367 -1 22 C-2.27941199 15.13769932 -3.98498804 5.97748207 0 0 Z " fill="#1085FE" transform="translate(3,5)"/>
</svg>
