<svg width="32" height="32" viewBox="0 0 32 32" xmlns="http://www.w3.org/2000/svg"><title>sh-email-32</title><g fill="none" fill-rule="evenodd"><path fill="#333" d="M0 0h32v32H0z"/><path d="M24.991 6.794l-2.714 16.287a.668.668 0 0 1-.34.477.65.65 0 0 1-.583.031l-4.803-1.961-2.566 3.128a.624.624 0 0 1-.52.244.573.573 0 0 1-.233-.043.665.665 0 0 1-.323-.249c-.081-.117 0-.223 0-.365v-3.888l9.04-11.063-11.035 9.625-4.489-1.535c-.261-.099-.403-.293-.424-.583a.63.63 0 0 1 .34-.626L23.983 6.094a.649.649 0 0 1 .34-.095c.14 0 .532-.055.645.022.233.17.065.49.022.773z" fill="#FFF"/></g></svg>