<?xml version="1.0" encoding="UTF-8"?>
<svg version="1.1" xmlns="http://www.w3.org/2000/svg" width="64" height="64">
<path d="M0 0 C21.12 0 42.24 0 64 0 C64 21.12 64 42.24 64 64 C42.88 64 21.76 64 0 64 C0 42.88 0 21.76 0 0 Z " fill="#020202" transform="translate(0,0)"/>
<path d="M0 0 C3.67755257 2.28522814 6.83662144 5.36358049 8.8984375 9.1796875 C8.58203125 11.9375 8.58203125 11.9375 7.8984375 14.1796875 C6.9084375 14.1796875 5.9184375 14.1796875 4.8984375 14.1796875 C4.5065625 13.2721875 4.1146875 12.3646875 3.7109375 11.4296875 C1.65336779 7.74025215 0.63999337 6.16500286 -3.1015625 4.1796875 C-9.98462447 3.3082899 -16.09512923 3.60138683 -22.1015625 7.1796875 C-27.10823913 12.52014257 -26.57962773 19.31038992 -26.45703125 26.19921875 C-26.00609547 31.24870838 -24.69079837 34.60056216 -21.1015625 38.1796875 C-17.36906357 40.66802012 -15.18209848 40.54278268 -10.7265625 40.6171875 C-9.41945313 40.65714844 -8.11234375 40.69710937 -6.765625 40.73828125 C-2.24191901 40.04863311 -0.80724544 38.81140724 1.8984375 35.1796875 C2.49290723 32.98289243 2.49290723 32.98289243 2.2109375 30.8671875 C2.05625 29.041875 2.05625 29.041875 1.8984375 27.1796875 C1.2384375 27.1796875 0.5784375 27.1796875 -0.1015625 27.1796875 C-1.44487904 29.17299592 -2.77750262 31.17353616 -4.1015625 33.1796875 C-7.27860278 35.29771435 -9.29311235 35.72636357 -13.08984375 35.62109375 C-15.1015625 35.1796875 -15.1015625 35.1796875 -18.1640625 32.6171875 C-20.1015625 29.1796875 -20.1015625 29.1796875 -20.2265625 25.5546875 C-18.85238981 21.43216944 -17.95661362 20.18752662 -14.1015625 18.1796875 C-11.06890214 17.86981768 -8.13724262 17.94159494 -5.1015625 18.1796875 C-5.7615625 17.1896875 -6.4215625 16.1996875 -7.1015625 15.1796875 C-10.51799009 14.92952877 -10.51799009 14.92952877 -14.1015625 15.1796875 C-15.4215625 15.1796875 -16.7415625 15.1796875 -18.1015625 15.1796875 C-18.4315625 14.5196875 -18.7615625 13.8596875 -19.1015625 13.1796875 C-16.61783951 9.86805685 -15.40278507 9.22341336 -11.2265625 8.6171875 C-6.60016998 8.86749605 -4.22230579 10.76173056 -1.1015625 14.1796875 C-0.41055697 16.17140932 0.25746453 18.17130554 0.8984375 20.1796875 C2.52470154 21.56201193 4.1909377 22.89906265 5.8984375 24.1796875 C8.43991344 27.68934475 8.46214233 30.9519013 7.8984375 35.1796875 C5.45881932 39.90264938 2.2063716 44.00224462 -2.98046875 45.78125 C-8.84574739 46.88301505 -14.69468459 46.90629215 -20.4140625 45.1796875 C-26.18754091 40.88314543 -30.29229404 36.23583449 -32.1015625 29.1796875 C-33.08155396 18.71884844 -32.44951377 11.46773634 -25.7890625 3.3671875 C-18.295464 -2.73225314 -8.87775863 -3.8047537 0 0 Z " fill="#E3E3E3" transform="translate(43.1015625,9.8203125)"/>
<path d="M0 0 C-0.875 5.875 -0.875 5.875 -2 7 C-5.5 7.125 -5.5 7.125 -9 7 C-10 6 -10 6 -10.0625 3.4375 C-10.041875 2.633125 -10.02125 1.82875 -10 1 C-6.78548731 -0.60725635 -3.56387464 -0.05748185 0 0 Z " fill="#060606" transform="translate(38,33)"/>
<path d="M0 0 C0.66 0.33 1.32 0.66 2 1 C-0.31 3.31 -2.62 5.62 -5 8 C-5 5 -5 5 -2.5 2.3125 C-1.675 1.549375 -0.85 0.78625 0 0 Z " fill="#DBDBDB" transform="translate(21,10)"/>
</svg>
