<svg width="32" height="32" viewBox="0 0 32 32" xmlns="http://www.w3.org/2000/svg"><title>sh-tumbr-32</title><g fill="none" fill-rule="evenodd"><path fill="#35465C" d="M0 32h32V0H0z"/><path d="M12.873 23.307c.18.48.507.933.987 1.36a4.92 4.92 0 0 0 1.713.986c.674.234 1.187.347 2.06.347.774 0 1.487-.08 2.147-.247.667-.16 1.407-.44 2.22-.846v-3.154c-.96.66-1.92.987-2.887.987a2.728 2.728 0 0 1-1.453-.393c-.313-.2-.607-.54-.727-.867-.113-.327-.1-.993-.1-2.153v-5.134h4.414v-3.566h-4.414V6h-2.72c-.12 1.033-.346 1.88-.666 2.547a5.513 5.513 0 0 1-1.294 1.72c-.533.473-1.4.84-2.153 1.093v2.833h2.593v7.014c0 .913.094 1.613.28 2.1" fill="#FFF"/></g></svg>