<svg width="32" height="32" viewBox="0 0 32 32" xmlns="http://www.w3.org/2000/svg"><title>sh-twitter-32</title><g fill="none" fill-rule="evenodd"><path fill="#1DA1F2" d="M0 32h32V0H0z"/><path d="M25.449 8.293a8.18 8.18 0 0 1-2.607.98A4.143 4.143 0 0 0 19.847 8c-2.265 0-4.102 1.807-4.102 4.04 0 .313.036.627.105.92a11.72 11.72 0 0 1-8.458-4.22 3.961 3.961 0 0 0-.556 2.033c0 1.4.726 2.634 1.827 3.36a4.16 4.16 0 0 1-1.859-.506v.053c0 1.953 1.415 3.587 3.292 3.96a4.137 4.137 0 0 1-1.854.067 4.1 4.1 0 0 0 3.833 2.806 8.338 8.338 0 0 1-5.097 1.727c-.332 0-.657-.02-.98-.053A11.752 11.752 0 0 0 12.29 24c7.548 0 11.675-6.153 11.675-11.493 0-.174-.003-.347-.011-.52a8.287 8.287 0 0 0 2.047-2.094 8.22 8.22 0 0 1-2.357.634 4.028 4.028 0 0 0 1.805-2.234" fill="#FFF"/></g></svg>